<svg xmlns="http://www.w3.org/2000/svg" width="512" height="512" viewBox="0 0 512 512">
  <defs>
    <linearGradient id="g" x1="0" y1="0" x2="1" y2="1">
      <stop offset="0" stop-color="#007AFF"/>
      <stop offset="1" stop-color="#5856D6"/>
    </linearGradient>
  </defs>
  <rect width="512" height="512" rx="112" fill="url(#g)"/>
  <!-- plate -->
  <circle cx="256" cy="256" r="118" fill="none" stroke="#ffffff" stroke-width="20"/>
  <circle cx="256" cy="256" r="70" fill="none" stroke="#ffffff" stroke-width="14" opacity="0.7"/>
  <!-- fork -->
  <g fill="#ffffff">
    <rect x="120" y="118" width="14" height="120" rx="7"/>
    <rect x="146" y="118" width="14" height="120" rx="7"/>
    <rect x="172" y="118" width="14" height="120" rx="7"/>
    <rect x="146" y="220" width="14" height="174" rx="7"/>
    <path d="M120 118 q33 60 66 0 q0 70 -26 102 l0 174 -14 0 0 -174 q-26 -32 -26 -102 z"/>
  </g>
  <!-- knife -->
  <g fill="#ffffff">
    <path d="M372 118 q40 40 24 150 q-6 40 -24 44 l0 82 -14 0 0 -276 z"/>
  </g>
</svg>
